<?xml version="1.0" encoding="UTF-8" standalone="no"?>
<svg width="558px" height="143px" viewBox="0 0 558 143" version="1.1" xmlns="http://www.w3.org/2000/svg" xmlns:xlink="http://www.w3.org/1999/xlink">
    <!-- Generator: Sketch 41.2 (35397) - http://www.bohemiancoding.com/sketch -->
    <title>brand__hg</title>
    <desc>Created with Sketch.</desc>
    <defs></defs>
    <g id="Symbols" stroke="none" stroke-width="1" fill="none" fill-rule="evenodd">
        <g id="brand__hg" fill="#0033FF">
            <path d="M336.512368,0 C311.201604,0 303.393876,17.5765704 303.393876,71.4893617 C303.393876,125.402153 311.205894,142.978723 336.512368,142.978723 C361.818842,142.978723 369.652309,125.402153 369.652309,71.4893617 C369.652309,17.5765704 361.818842,0 336.512368,0 Z M336.512368,127.276813 C324.071484,127.276813 322.192481,114.532604 322.192481,71.4937113 C322.192481,28.4548189 324.062904,15.7062597 336.512368,15.7062597 C348.961832,15.7062597 350.832255,28.4504694 350.832255,71.4937113 C350.832255,114.536953 348.957542,127.276813 336.512368,127.276813 Z" id="Shape"></path>
            <path d="M106.362221,0 C81.0432603,0 73.2330047,17.5765704 73.2330047,71.4893617 C73.2330047,125.402153 81.0475517,142.978723 106.362221,142.978723 C131.67689,142.978723 139.491437,125.402153 139.491437,71.4893617 C139.491437,17.5765704 131.67689,0 106.362221,0 Z M106.362221,127.276813 C93.9173082,127.276813 92.0376972,114.532604 92.0376972,71.4937113 C92.0376972,28.4548189 93.9087255,15.7062597 106.362221,15.7062597 C118.815717,15.7062597 120.686745,28.4504694 120.686745,71.4937113 C120.686745,114.536953 118.811425,127.276813 106.362221,127.276813 Z" id="Shape"></path>
            <path d="M253.610548,3.48728594 L223.1863,3.48728594 L223.1863,142.978723 L253.610548,142.978723 C278.753454,142.978723 289.444733,119.71921 289.444733,73.2308166 C289.444733,26.7424232 278.74902,3.48728594 253.610548,3.48728594 Z M250.133997,127.290039 L242.622166,127.180634 L242.622166,19.2809988 L250.133997,19.2809988 C262.811876,19.2809988 270.008867,30.1733655 270.008867,73.2264404 C270.008867,116.279515 262.811876,127.281287 250.133997,127.281287 L250.133997,127.290039 Z" id="Shape"></path>
            <polygon id="Shape" points="175.81253 126.415838 212.724442 126.415838 212.724442 142.978723 156.927867 142.974347 156.927867 3.48728594 210.578751 3.48728594 210.578751 20.054547 175.81253 20.054547 175.799604 61.0263552 208.523542 61.0263552 208.523542 77.5892404 175.799604 77.5892404"></polygon>
            <polygon id="Shape" points="18.6319491 142.978723 5.68434189e-14 142.978723 5.68434189e-14 3.48728594 18.6319491 3.48728594 18.6319491 61.1357534 40.6519118 61.1357534 40.6519118 3.48728594 59.2838609 3.48728594 59.2838609 142.978723 40.6519118 142.978723 40.6519118 78.4600499 18.6319491 78.4600499"></polygon>
            <polygon id="Shape" points="438.09232 3.48728594 451.398819 111.651459 462.723127 3.48728594 481.245459 3.48728594 463.261338 142.978723 439.838223 142.978723 428.933982 49.8064774 418.034117 142.978723 394.615378 142.978723 376.626881 3.48728594 395.149213 3.48728594 406.473521 111.638331 419.784397 3.48728594"></polygon>
            <polygon id="Shape" points="535.297585 142.978723 557.96575 142.978723 557.96575 3.48728594 540.093784 3.48728594 540.093784 104.326157 514.375482 3.48728594 491.707317 3.48728594 491.707317 142.978723 509.579283 142.978723 509.583659 42.1398526"></polygon>
        </g>
    </g>
</svg>