<?xml version="1.0" encoding="UTF-8" standalone="no"?>
<svg width="120px" height="31px" viewBox="0 0 120 31" version="1.1" xmlns="http://www.w3.org/2000/svg" xmlns:xlink="http://www.w3.org/1999/xlink">
    <!-- Generator: Sketch 41.2 (35397) - http://www.bohemiancoding.com/sketch -->
    <title>brand--inversed</title>
    <desc>Created with Sketch.</desc>
    <defs></defs>
    <g id="Symbols" stroke="none" stroke-width="1" fill="none" fill-rule="evenodd">
        <g id="brand--inversed" fill="#FFFFFF">
            <path d="M72.1097931,0 C66.6860579,0 65.0129735,3.76640794 65.0129735,15.3191489 C65.0129735,26.8718899 66.6869772,30.6382979 72.1097931,30.6382979 C77.5326091,30.6382979 79.2112091,26.8718899 79.2112091,15.3191489 C79.2112091,3.76640794 77.5326091,0 72.1097931,0 Z M72.1097931,27.2736028 C69.4438894,27.2736028 69.041246,24.5427008 69.041246,15.320081 C69.041246,6.0974612 69.4420508,3.36562709 72.1097931,3.36562709 C74.7775354,3.36562709 75.1783403,6.09652915 75.1783403,15.320081 C75.1783403,24.5436328 74.7766162,27.2736028 72.1097931,27.2736028 Z" id="Shape"></path>
            <path d="M22.7919045,0 C17.3664129,0 15.6927867,3.76640794 15.6927867,15.3191489 C15.6927867,26.8718899 17.3673325,30.6382979 22.7919045,30.6382979 C28.2164765,30.6382979 29.8910223,26.8718899 29.8910223,15.3191489 C29.8910223,3.76640794 28.2164765,0 22.7919045,0 Z M22.7919045,27.2736028 C20.1251375,27.2736028 19.7223637,24.5427008 19.7223637,15.320081 C19.7223637,6.0974612 20.1232983,3.36562709 22.7919045,3.36562709 C25.4605107,3.36562709 25.8614453,6.09652915 25.8614453,15.320081 C25.8614453,24.5436328 25.4595911,27.2736028 22.7919045,27.2736028 Z" id="Shape"></path>
            <path d="M54.3451173,0.747275558 L47.8256357,0.747275558 L47.8256357,30.6382979 L54.3451173,30.6382979 C59.7328831,30.6382979 62.0238713,25.6541164 62.0238713,15.6923178 C62.0238713,5.73051925 59.7319329,0.747275558 54.3451173,0.747275558 Z M53.6001423,27.276437 L51.9904641,27.2529931 L51.9904641,4.1316426 L53.6001423,4.1316426 C56.3168305,4.1316426 57.8590429,6.46572118 57.8590429,15.6913801 C57.8590429,24.917039 56.3168305,27.2745615 53.6001423,27.2745615 L53.6001423,27.276437 Z" id="Shape"></path>
            <polygon id="Shape" points="37.6741136 27.0891082 45.583809 27.0891082 45.583809 30.6382979 33.6274001 30.6373602 33.6274001 0.747275558 45.1240182 0.747275558 45.1240182 4.29740294 37.6741136 4.29740294 37.6713438 13.0770761 44.6836161 13.0770761 44.6836161 16.6262658 37.6713438 16.6262658"></polygon>
            <polygon id="Shape" points="3.99256053 30.6382979 0 30.6382979 0 0.747275558 3.99256053 0.747275558 3.99256053 13.1005186 8.71112396 13.1005186 8.71112396 0.747275558 12.7036845 0.747275558 12.7036845 30.6382979 8.71112396 30.6382979 8.71112396 16.8128678 3.99256053 16.8128678"></polygon>
            <polygon id="Shape" points="93.8769256 0.747275558 96.7283184 23.9253127 99.1549558 0.747275558 103.124027 0.747275558 99.2702867 30.6382979 94.2510479 30.6382979 91.9144248 10.6728166 89.5787394 30.6382979 84.5604382 30.6382979 80.7057602 0.747275558 84.6748314 0.747275558 87.1014689 23.9224996 89.9537993 0.747275558"></polygon>
            <polygon id="Shape" points="114.706625 30.6382979 119.564089 30.6382979 119.564089 0.747275558 115.734382 0.747275558 115.734382 22.355605 110.223318 0.747275558 105.365854 0.747275558 105.365854 30.6382979 109.195561 30.6382979 109.196498 9.02996841"></polygon>
        </g>
    </g>
</svg>