<?xml version="1.0" encoding="UTF-8" standalone="no"?>
<svg width="141px" height="36px" viewBox="0 0 141 36" version="1.1" xmlns="http://www.w3.org/2000/svg" xmlns:xlink="http://www.w3.org/1999/xlink">
    <!-- Generator: Sketch 41.2 (35397) - http://www.bohemiancoding.com/sketch -->
    <title>brand__lg--inversed</title>
    <desc>Created with Sketch.</desc>
    <defs></defs>
    <g id="Symbols" stroke="none" stroke-width="1" fill="none" fill-rule="evenodd">
        <g id="brand__lg--inversed" fill="#FFFFFF">
            <path d="M84.7290069,0 C78.3561181,0 76.3902439,4.42552933 76.3902439,18 C76.3902439,31.5744707 78.3571982,36 84.7290069,36 C91.1008156,36 93.0731707,31.5744707 93.0731707,18 C93.0731707,4.42552933 91.1008156,0 84.7290069,0 Z M84.7290069,32.0464833 C81.59657,32.0464833 81.1234641,28.8376734 81.1234641,18.0010952 C81.1234641,7.16451691 81.5944097,3.95461183 84.7290069,3.95461183 C87.8636041,3.95461183 88.3345498,7.16342176 88.3345498,18.0010952 C88.3345498,28.8387686 87.862524,32.0464833 84.7290069,32.0464833 Z" id="Shape"></path>
            <path d="M26.7804878,0 C20.4055352,0 18.4390244,4.42552933 18.4390244,18 C18.4390244,31.5744707 20.4066157,36 26.7804878,36 C33.1543599,36 35.1219512,31.5744707 35.1219512,18 C35.1219512,4.42552933 33.1543599,0 26.7804878,0 Z M26.7804878,32.0464833 C23.6470365,32.0464833 23.1737773,28.8376734 23.1737773,18.0010952 C23.1737773,7.16451691 23.6448755,3.95461183 26.7804878,3.95461183 C29.9161001,3.95461183 30.3871983,7.16342176 30.3871983,18.0010952 C30.3871983,28.8387686 29.9150196,32.0464833 26.7804878,32.0464833 Z" id="Shape"></path>
            <path d="M63.8555129,0.87804878 L56.195122,0.87804878 L56.195122,36 L63.8555129,36 C70.1861376,36 72.8780488,30.1435868 72.8780488,18.4384735 C72.8780488,6.73336011 70.1850211,0.87804878 63.8555129,0.87804878 Z M62.9801672,32.0498135 L61.0887954,32.0222669 L61.0887954,4.85468006 L62.9801672,4.85468006 C66.1722759,4.85468006 67.9843754,7.59722238 67.9843754,18.4373716 C67.9843754,29.2775208 66.1722759,32.0476098 62.9801672,32.0476098 L62.9801672,32.0498135 Z" id="Shape"></path>
            <polygon id="Shape" points="44.2670835 31.8297021 53.5609756 31.8297021 53.5609756 36 39.5121951 35.9988982 39.5121951 0.87804878 53.0207213 0.87804878 53.0207213 5.04944845 44.2670835 5.04944845 44.263829 15.3655644 52.5032489 15.3655644 52.5032489 19.5358623 44.263829 19.5358623"></polygon>
            <polygon id="Shape" points="4.69125862 36 -1.42108547e-14 36 -1.42108547e-14 0.87804878 4.69125862 0.87804878 4.69125862 15.3931093 10.2355707 15.3931093 10.2355707 0.87804878 14.9268293 0.87804878 14.9268293 36 10.2355707 36 10.2355707 19.7551197 4.69125862 19.7551197"></polygon>
            <polygon id="Shape" points="110.305388 0.87804878 113.655774 28.1122424 116.507073 0.87804878 121.170732 0.87804878 116.642587 36 110.744981 36 107.999449 12.5405595 105.255019 36 99.3585149 36 94.8292683 0.87804878 99.4929269 0.87804878 102.344226 28.108937 105.695714 0.87804878"></polygon>
            <polygon id="Shape" points="134.780285 36 140.487805 36 140.487805 0.87804878 135.987899 0.87804878 135.987899 26.2678359 129.512398 0.87804878 123.804878 0.87804878 123.804878 36 128.304784 36 128.305886 10.6102129"></polygon>
        </g>
    </g>
</svg>