<?xml version="1.0" encoding="UTF-8" standalone="no"?>
<svg width="121px" height="31px" viewBox="0 0 121 31" version="1.1" xmlns="http://www.w3.org/2000/svg" xmlns:xlink="http://www.w3.org/1999/xlink">
    <!-- Generator: Sketch 42 (36781) - http://www.bohemiancoding.com/sketch -->
    <title>brand__lg</title>
    <desc>Created with Sketch.</desc>
    <defs></defs>
    <g id="Symbols" stroke="none" stroke-width="1" fill="none" fill-rule="evenodd">
        <g id="brand__lg" fill="#0033FF">
            <path d="M72.7107081,0 C67.2417751,0 65.5547483,3.79779467 65.5547483,15.4468085 C65.5547483,27.0958224 67.242702,30.893617 72.7107081,30.893617 C78.1787141,30.893617 79.8713025,27.0958224 79.8713025,15.4468085 C79.8713025,3.79779467 78.1787141,0 72.7107081,0 Z M72.7107081,27.5008829 C70.0225885,27.5008829 69.6165897,24.7472233 69.6165897,15.4477483 C69.6165897,6.14827338 70.0207346,3.39367398 72.7107081,3.39367398 C75.4006816,3.39367398 75.8048264,6.14733356 75.8048264,15.4477483 C75.8048264,24.7481631 75.3997546,27.5008829 72.7107081,27.5008829 Z" id="Shape"></path>
            <path d="M22.9818371,0 C17.511133,0 15.8235599,3.79779467 15.8235599,15.4468085 C15.8235599,27.0958224 17.5120603,30.893617 22.9818371,30.893617 C28.4516138,30.893617 30.1401142,27.0958224 30.1401142,15.4468085 C30.1401142,3.79779467 28.4516138,0 22.9818371,0 Z M22.9818371,27.5008829 C20.2928469,27.5008829 19.8867167,24.7472233 19.8867167,15.4477483 C19.8867167,6.14827338 20.2909925,3.39367398 22.9818371,3.39367398 C25.6726816,3.39367398 26.0769574,6.14733356 26.0769574,15.4477483 C26.0769574,24.7481631 25.6717544,27.5008829 22.9818371,27.5008829 Z" id="Shape"></path>
            <path d="M54.7979933,0.753502854 L48.2241827,0.753502854 L48.2241827,30.893617 L54.7979933,30.893617 C60.2306571,30.893617 62.5407369,25.8679007 62.5407369,15.8230872 C62.5407369,5.77827357 60.229699,0.753502854 54.7979933,0.753502854 Z M54.0468102,27.5037407 L52.423718,27.4801013 L52.423718,4.16607296 L54.0468102,4.16607296 C56.7861375,4.16607296 58.3412015,6.51960219 58.3412015,15.8221416 C58.3412015,25.124681 56.7861375,27.5018495 54.0468102,27.5018495 L54.0468102,27.5037407 Z" id="Shape"></path>
            <polygon id="Shape" points="37.9880646 27.3148508 45.9636741 27.3148508 45.9636741 30.893617 33.9076284 30.8926715 33.9076284 0.753502854 45.5000517 0.753502854 45.5000517 4.33321463 37.9880646 4.33321463 37.9852717 13.1860518 45.0559795 13.1860518 45.0559795 16.764818 37.9852717 16.764818"></polygon>
            <polygon id="Shape" points="4.02583186 30.893617 -1.24344979e-14 30.893617 -1.24344979e-14 0.753502854 4.02583186 0.753502854 4.02583186 13.2096896 8.78371666 13.2096896 8.78371666 0.753502854 12.8095485 0.753502854 12.8095485 30.893617 8.78371666 30.893617 8.78371666 16.9529751 4.02583186 16.9529751"></polygon>
            <polygon id="Shape" points="94.6592333 0.753502854 97.5343877 24.1246903 99.9812471 0.753502854 103.983394 0.753502854 100.097539 30.893617 95.0364732 30.893617 92.6803783 10.7617567 90.3252289 30.893617 85.2651085 30.893617 81.3783083 0.753502854 85.380455 0.753502854 87.8273144 24.1218538 90.7034143 0.753502854"></polygon>
            <polygon id="Shape" points="115.662514 30.893617 120.560457 30.893617 120.560457 0.753502854 116.698835 0.753502854 116.698835 22.5419017 111.141845 0.753502854 106.243902 0.753502854 106.243902 30.893617 110.105524 30.893617 110.106469 9.10521815"></polygon>
        </g>
    </g>
</svg>