<?xml version="1.0" encoding="UTF-8" standalone="no"?>
<svg width="94px" height="24px" viewBox="0 0 94 24" version="1.1" xmlns="http://www.w3.org/2000/svg" xmlns:xlink="http://www.w3.org/1999/xlink">
    <!-- Generator: Sketch 41.2 (35397) - http://www.bohemiancoding.com/sketch -->
    <title>brand__sm</title>
    <desc>Created with Sketch.</desc>
    <defs></defs>
    <g id="Symbols" stroke="none" stroke-width="1" fill="none" fill-rule="evenodd">
        <g id="brand__sm" fill="#0033FF">
            <path d="M56.4860046,0 C52.2374121,0 50.9268293,2.95035288 50.9268293,12 C50.9268293,21.0496471 52.2381322,24 56.4860046,24 C60.7338771,24 62.0487805,21.0496471 62.0487805,12 C62.0487805,2.95035288 60.7338771,0 56.4860046,0 Z M56.4860046,21.3643222 C54.3977134,21.3643222 54.0823094,19.2251156 54.0823094,12.0007301 C54.0823094,4.77634461 54.3962732,2.63640789 56.4860046,2.63640789 C58.5757361,2.63640789 58.8896999,4.7756145 58.8896999,12.0007301 C58.8896999,19.2258457 58.575016,21.3643222 56.4860046,21.3643222 Z" id="Shape"></path>
            <path d="M17.8536585,0 C13.6036901,0 12.2926829,2.95035288 12.2926829,12 C12.2926829,21.0496471 13.6044105,24 17.8536585,24 C22.1029066,24 23.4146341,21.0496471 23.4146341,12 C23.4146341,2.95035288 22.1029066,0 17.8536585,0 Z M17.8536585,21.3643222 C15.764691,21.3643222 15.4491849,19.2251156 15.4491849,12.0007301 C15.4491849,4.77634461 15.7632503,2.63640789 17.8536585,2.63640789 C19.9440667,2.63640789 20.2581322,4.7756145 20.2581322,12.0007301 C20.2581322,19.2258457 19.9433464,21.3643222 17.8536585,21.3643222 Z" id="Shape"></path>
            <path d="M42.5703419,0.585365854 L37.4634146,0.585365854 L37.4634146,24 L42.5703419,24 C46.7907584,24 48.5853659,20.0957245 48.5853659,12.2923156 C48.5853659,4.48890674 46.7900141,0.585365854 42.5703419,0.585365854 Z M41.9867781,21.3665423 L40.7258636,21.3481779 L40.7258636,3.23645337 L41.9867781,3.23645337 C44.1148506,3.23645337 45.3229169,5.06481492 45.3229169,12.2915811 C45.3229169,19.5183472 44.1148506,21.3650732 41.9867781,21.3650732 L41.9867781,21.3665423 Z" id="Shape"></path>
            <polygon id="Shape" points="29.511389 21.2198014 35.7073171 21.2198014 35.7073171 24 26.3414634 23.9992655 26.3414634 0.585365854 35.3471476 0.585365854 35.3471476 3.36629897 29.511389 3.36629897 29.5092193 10.2437096 35.0021659 10.2437096 35.0021659 13.0239082 29.5092193 13.0239082"></polygon>
            <polygon id="Shape" points="3.12750575 24 0 24 0 0.585365854 3.12750575 0.585365854 3.12750575 10.2620729 6.82371377 10.2620729 6.82371377 0.585365854 9.95121951 0.585365854 9.95121951 24 6.82371377 24 6.82371377 13.1700798 3.12750575 13.1700798"></polygon>
            <polygon id="Shape" points="73.5369251 0.585365854 75.7705161 18.7414949 77.671382 0.585365854 80.7804878 0.585365854 77.7617246 24 73.8299875 24 71.9996328 8.36037299 70.1700125 24 66.2390099 24 63.2195122 0.585365854 66.328618 0.585365854 68.2294839 18.7392913 70.4638094 0.585365854"></polygon>
            <polygon id="Shape" points="89.8535232 24 93.6585366 24 93.6585366 0.585365854 90.6585994 0.585365854 90.6585994 17.5118906 86.3415987 0.585365854 82.5365854 0.585365854 82.5365854 24 85.5365225 24 85.5372571 7.07347526"></polygon>
        </g>
    </g>
</svg>