<?xml version="1.0" encoding="UTF-8" standalone="no"?>
<svg width="70px" height="38px" viewBox="0 0 70 38" version="1.1" xmlns="http://www.w3.org/2000/svg" xmlns:xlink="http://www.w3.org/1999/xlink">
    <!-- Generator: Sketch 41.2 (35397) - http://www.bohemiancoding.com/sketch -->
    <title>icon__chevron--down</title>
    <desc>Created with Sketch.</desc>
    <defs></defs>
    <g id="Symbols" stroke="none" stroke-width="1" fill="none" fill-rule="evenodd">
        <g id="icon__chevron--down" fill="#0033FF">
            <path d="M64.0625,1.23438 C64.58334,0.71354 65.23437,0.45312 66.01562,0.45312 C66.79688,0.45312 67.44791,0.71354 67.96875,1.23438 C68.48959,1.75521 68.75,2.39323 68.75,3.14844 C68.75,3.90365 68.48959,4.56771 67.96875,5.14062 L36.32812,36.390625 C35.80729,36.9635445 35.15625,37.25 34.375,37.25 C33.59375,37.25 32.94271,36.9635445 32.42188,36.390625 L0.78125,5.14062 C0.2604141,4.56771 0,3.90365 0,3.14844 C0,2.39323 0.2604141,1.75521 0.78125,1.23438 C1.302086,0.71354 1.953121,0.45312 2.734375,0.45312 C3.515629,0.45312 4.166664,0.71354 4.6875,1.23438 L34.375,29.828125 L64.0625,1.23438 Z" id="Page-1"></path>
        </g>
    </g>
</svg>