<?xml version="1.0" encoding="UTF-8" standalone="no"?>
<svg width="69px" height="37px" viewBox="0 0 69 37" version="1.1" xmlns="http://www.w3.org/2000/svg" xmlns:xlink="http://www.w3.org/1999/xlink">
    <!-- Generator: Sketch 41.2 (35397) - http://www.bohemiancoding.com/sketch -->
    <title>icon__chevron--down--inversed</title>
    <desc>Created with Sketch.</desc>
    <defs></defs>
    <g id="Symbols" stroke="none" stroke-width="1" fill="none" fill-rule="evenodd">
        <g id="icon__chevron--down--inversed" fill="#FFFFFF">
            <path d="M64.0625,0.73438 C64.58334,0.21354 65.23437,-0.04688 66.01562,-0.04688 C66.79688,-0.04688 67.44791,0.21354 67.96875,0.73438 C68.48959,1.25521 68.75,1.89323 68.75,2.64844 C68.75,3.40365 68.48959,4.06771 67.96875,4.64062 L36.32812,35.890625 C35.80729,36.4635445 35.15625,36.75 34.375,36.75 C33.59375,36.75 32.94271,36.4635445 32.42188,35.890625 L0.78125,4.64062 C0.2604141,4.06771 0,3.40365 0,2.64844 C0,1.89323 0.2604141,1.25521 0.78125,0.73438 C1.302086,0.21354 1.953121,-0.04688 2.734375,-0.04688 C3.515629,-0.04688 4.166664,0.21354 4.6875,0.73438 L34.375,29.328125 L64.0625,0.73438 Z" id="Page-1"></path>
        </g>
    </g>
</svg>