<?xml version="1.0" encoding="UTF-8" standalone="no"?>
<svg width="25px" height="20px" viewBox="0 0 25 20" version="1.1" xmlns="http://www.w3.org/2000/svg" xmlns:xlink="http://www.w3.org/1999/xlink">
    <!-- Generator: Sketch 41.2 (35397) - http://www.bohemiancoding.com/sketch -->
    <title>icon__twitter--inversed</title>
    <desc>Created with Sketch.</desc>
    <defs></defs>
    <g id="Symbols" stroke="none" stroke-width="1" fill="none" fill-rule="evenodd">
        <g id="Footer/Default" transform="translate(-676.000000, -171.000000)" fill="#FFFFFF">
            <path d="M699.942308,171.384615 C698.948714,171.961542 697.875006,172.362178 696.721154,172.586538 C695.72756,171.52884 694.493597,171 693.019231,171 C691.641018,171 690.455132,171.496791 689.461538,172.490385 C688.467945,173.483978 687.971154,174.669865 687.971154,176.048077 C687.971154,176.432695 688.019231,176.817305 688.115385,177.201923 C686.064092,177.105769 684.133022,176.592954 682.322114,175.663462 C680.511209,174.733969 678.980775,173.483982 677.730769,171.913462 C677.249998,172.682695 677.009615,173.532046 677.009615,174.461538 C677.009615,176.256418 677.762813,177.650637 679.269231,178.644231 C678.467945,178.644231 677.714747,178.435898 677.009615,178.019231 L677.009615,178.115385 C677.009615,179.301289 677.386214,180.358969 678.139423,181.288462 C678.892632,182.217954 679.862172,182.810895 681.048077,183.067308 C680.599357,183.163462 680.150643,183.211538 679.701923,183.211538 C679.381409,183.211538 679.060898,183.179486 678.740385,183.115385 C679.092951,184.141031 679.693905,184.982369 680.543271,185.639422 C681.392634,186.296477 682.362175,186.625 683.451923,186.625 C681.624991,188.067315 679.541677,188.788462 677.201923,188.788462 C676.817306,188.788462 676.416669,188.772436 676,188.740385 C678.371807,190.246802 680.951908,191 683.740385,191 C685.983985,191 688.035246,190.567312 689.894231,189.701923 C691.753215,188.836534 693.267622,187.706738 694.437498,186.312498 C695.607378,184.918262 696.512818,183.379815 697.153846,181.697114 C697.794874,180.014415 698.115385,178.323726 698.115385,176.625 L698.115385,176 C699.108978,175.262815 699.942305,174.381415 700.615385,173.355769 C699.685892,173.772437 698.724363,174.044871 697.730769,174.173077 C698.820517,173.499997 699.557689,172.57052 699.942308,171.384615 Z" id="icon__twitter--inversed"></path>
        </g>
    </g>
</svg>