<?xml version="1.0" encoding="UTF-8" standalone="no"?>
<svg width="34px" height="19px" viewBox="0 0 34 19" version="1.1" xmlns="http://www.w3.org/2000/svg" xmlns:xlink="http://www.w3.org/1999/xlink">
    <!-- Generator: Sketch 39.1 (31720) - http://www.bohemiancoding.com/sketch -->
    <title>icon-chevron-thin-up</title>
    <desc>Created with Sketch.</desc>
    <defs></defs>
    <g id="Page-1" stroke="none" stroke-width="1" fill="none" fill-rule="evenodd">
        <g id="assets" transform="translate(-96.000000, -49.000000)" fill="#0032FF">
            <path d="M98.2929933,66.9872601 C98.038215,67.2675162 97.7197469,67.4076422 97.3375794,67.4076422 C96.9554119,67.4076422 96.6369439,67.2675162 96.3821656,66.9872601 C96.1273873,66.7324817 96,66.4203832 96,66.0509542 C96,65.6815257 96.1273873,65.3694272 96.3821656,65.1146489 L111.859873,49.7898126 C112.114648,49.5350323 112.433119,49.4076422 112.815284,49.4076422 C113.19745,49.4076422 113.51592,49.5350323 113.770696,49.7898126 L129.248403,65.1146489 C129.503183,65.3694272 129.630569,65.6815257 129.630569,66.0509542 C129.630569,66.4203832 129.503183,66.7324817 129.248403,66.9872601 C128.993623,67.2675162 128.675157,67.4076422 128.292987,67.4076422 C127.910821,67.4076422 127.592356,67.2675162 127.337575,66.9872601 L112.815284,53.0382174 L98.2929933,66.9872601 Z" id="icon-chevron-thin-up"></path>
        </g>
    </g>
</svg>