<?xml version="1.0" encoding="UTF-8" standalone="no"?>
<svg width="36px" height="60px" viewBox="0 0 36 60" version="1.1" xmlns="http://www.w3.org/2000/svg" xmlns:xlink="http://www.w3.org/1999/xlink">
    <!-- Generator: Sketch 41.2 (35397) - http://www.bohemiancoding.com/sketch -->
    <title>icon__chevron--right--inversed</title>
    <desc>Created with Sketch.</desc>
    <defs></defs>
    <g id="Symbols" stroke="none" stroke-width="1" fill="none" fill-rule="evenodd">
        <g id="icon__chevron--right--inversed" fill="#FFFFFF">
            <path d="M34.29688,29.125 L4.296875,1.78125 C3.776039,1.26041 3.177087,1 2.5,1 C1.822913,1 1.223961,1.26041 0.703125,1.78125 C0.2343727,2.25 0,2.83593 0,3.53906 C0,4.24219 0.2343727,4.82812 0.703125,5.29688 L28.90625,31 L0.703125,56.703125 C0.2343727,57.171877 0,57.757809 0,58.460938 C0,59.164066 0.2343727,59.749998 0.703125,60.21875 C1.223961,60.7395859 1.822913,61 2.5,61 C3.177087,61 3.776039,60.7395859 4.296875,60.21875 L34.29688,32.875 C34.55729,32.61458 34.7526,32.32813 34.88281,32.01562 C35.01302,31.70312 35.05208,31.36459 35,31 C35.05208,30.63541 35.01302,30.29688 34.88281,29.98438 C34.7526,29.67187 34.55729,29.38542 34.29688,29.125 Z" id="Page-1"></path>
        </g>
    </g>
</svg>