<?xml version="1.0" encoding="UTF-8" standalone="no"?>
<svg width="70px" height="38px" viewBox="0 0 70 38" version="1.1" xmlns="http://www.w3.org/2000/svg" xmlns:xlink="http://www.w3.org/1999/xlink">
    <!-- Generator: Sketch 41.2 (35397) - http://www.bohemiancoding.com/sketch -->
    <title>icon__chevron--up</title>
    <desc>Created with Sketch.</desc>
    <defs></defs>
    <g id="Symbols" stroke="none" stroke-width="1" fill="none" fill-rule="evenodd">
        <g id="icon__chevron--up" fill="#0033FF">
            <path d="M5.6875,36.328125 C5.166664,36.9010445 4.515629,37.1875 3.734375,37.1875 C2.953121,37.1875 2.302086,36.9010445 1.78125,36.328125 C1.2604141,35.807289 1,35.169275 1,34.414062 C1,33.65885 1.2604141,33.020836 1.78125,32.5 L33.42188,1.17188 C33.94271,0.65104 34.59375,0.39062 35.375,0.39062 C36.15625,0.39062 36.80729,0.65104 37.32812,1.17188 L68.96875,32.5 C69.48959,33.020836 69.75,33.65885 69.75,34.414062 C69.75,35.169275 69.48959,35.807289 68.96875,36.328125 C68.44791,36.9010445 67.79688,37.1875 67.01562,37.1875 C66.23437,37.1875 65.58334,36.9010445 65.0625,36.328125 L35.375,7.8125 L5.6875,36.328125 Z" id="Page-1"></path>
        </g>
    </g>
</svg>