<?xml version="1.0" encoding="UTF-8" standalone="no"?>
<svg width="24px" height="21px" viewBox="0 0 24 21" version="1.1" xmlns="http://www.w3.org/2000/svg" xmlns:xlink="http://www.w3.org/1999/xlink">
    <!-- Generator: Sketch 41.2 (35397) - http://www.bohemiancoding.com/sketch -->
    <title>icon__vimeo</title>
    <desc>Created with Sketch.</desc>
    <defs></defs>
    <g id="Symbols" stroke="none" stroke-width="1" fill="none" fill-rule="evenodd">
        <g id="Footer/Inversed" transform="translate(-580.000000, -170.000000)" fill="#0033FF">
            <path d="M593.304942,176.197717 C594.149591,175.684895 594.873567,175.534066 595.476888,175.745228 C596.080208,175.956391 596.419573,176.393792 596.494986,177.057445 C596.570401,177.721099 596.39695,178.490321 595.974625,179.365138 C594.496489,182.140415 593.425609,183.528034 592.761955,183.528034 C592.460295,183.528034 592.17372,183.173587 591.902227,182.464684 C591.630734,181.755784 591.283828,180.571784 590.861503,178.912649 C590.771005,178.460157 590.650344,177.781433 590.499512,176.87645 C590.348681,175.971467 590.205396,175.202245 590.069646,174.568758 C589.9339,173.935271 589.745366,173.28671 589.504037,172.623056 C589.262708,171.959402 588.923346,171.484294 588.485939,171.197718 C588.048529,170.91114 587.528172,170.828184 586.924851,170.948848 C586.050035,171.129844 585.039487,171.665283 583.893177,172.555184 C582.746867,173.445083 581.804191,174.274636 581.065123,175.043869 C580.326054,175.813106 579.971608,176.212799 580.001774,176.242966 L580.952001,177.464685 C581.012333,177.434518 581.080205,177.38927 581.155621,177.328939 C581.231036,177.268608 581.396947,177.163028 581.653358,177.012197 C581.90977,176.861365 582.143553,176.740703 582.354716,176.650206 C582.565878,176.559708 582.784579,176.514459 583.010823,176.514459 C583.23707,176.514459 583.410522,176.589872 583.531186,176.740703 C583.772515,177.012197 584.428617,178.89755 585.499514,182.396812 C586.570407,185.896074 587.226509,187.902089 587.467838,188.414912 C587.739331,188.988067 588.10886,189.493341 588.576437,189.930749 C589.04401,190.368156 589.609614,190.692437 590.273268,190.903599 C590.936922,191.114762 591.630731,190.979016 592.354716,190.496359 C593.01837,190.043868 593.832841,189.387767 594.798155,188.528034 C595.763469,187.668301 596.834348,186.589881 598.010824,185.29274 C599.187301,183.995599 600.243098,182.479777 601.178245,180.745227 C602.113392,179.010679 602.731789,177.29878 603.033449,175.609482 C603.455773,173.226362 602.83738,171.703 601.178245,171.039346 C599.730275,170.436026 598.14658,170.647185 596.427114,171.67283 C594.647317,172.728642 593.606602,174.236922 593.304942,176.197717 Z" id="icon__vimeo"></path>
        </g>
    </g>
</svg>