<?xml version="1.0" encoding="UTF-8" standalone="no"?>
<svg width="69px" height="37px" viewBox="0 0 69 37" version="1.1" xmlns="http://www.w3.org/2000/svg" xmlns:xlink="http://www.w3.org/1999/xlink">
    <!-- Generator: Sketch 41.2 (35397) - http://www.bohemiancoding.com/sketch -->
    <title>icon__chevron--up--inversed</title>
    <desc>Created with Sketch.</desc>
    <defs></defs>
    <g id="Symbols" stroke="none" stroke-width="1" fill="none" fill-rule="evenodd">
        <g id="icon__chevron--up--inversed" fill="#FFFFFF">
            <path d="M4.6875,36.328125 C4.166664,36.9010445 3.515629,37.1875 2.734375,37.1875 C1.953121,37.1875 1.302086,36.9010445 0.78125,36.328125 C0.2604141,35.807289 0,35.169275 0,34.414062 C0,33.65885 0.2604141,33.020836 0.78125,32.5 L32.42188,1.17188 C32.94271,0.65104 33.59375,0.39062 34.375,0.39062 C35.15625,0.39062 35.80729,0.65104 36.32812,1.17188 L67.96875,32.5 C68.48959,33.020836 68.75,33.65885 68.75,34.414062 C68.75,35.169275 68.48959,35.807289 67.96875,36.328125 C67.44791,36.9010445 66.79688,37.1875 66.01562,37.1875 C65.23437,37.1875 64.58334,36.9010445 64.0625,36.328125 L34.375,7.8125 L4.6875,36.328125 Z" id="Page-1"></path>
        </g>
    </g>
</svg>