<?xml version="1.0" encoding="UTF-8" standalone="no"?>
<svg width="101px" height="28px" viewBox="0 0 101 28" version="1.1" xmlns="http://www.w3.org/2000/svg" xmlns:xlink="http://www.w3.org/1999/xlink">
    <!-- Generator: Sketch 39.1 (31720) - http://www.bohemiancoding.com/sketch -->
    <title>logo-sobo</title>
    <desc>Created with Sketch.</desc>
    <defs></defs>
    <g id="Page-1" stroke="none" stroke-width="1" fill="none" fill-rule="evenodd">
        <g id="assets" transform="translate(-110.000000, -375.000000)" fill="#0032FF">
            <g id="logo-sobo" transform="translate(110.000000, 375.000000)">
                <g id="Layer_1">
                    <g id="Group">
                        <g transform="translate(53.000000, 1.000000)" id="Oval">
                            <circle cx="1.4" cy="1.3" r="1.2"></circle>
                            <circle cx="1.4" cy="6.1" r="1.2"></circle>
                            <circle cx="10.8" cy="1.9" r="1.2"></circle>
                            <circle cx="14.1" cy="5.3" r="1.2"></circle>
                            <circle cx="14" cy="9.9" r="1.2"></circle>
                            <circle cx="6.1" cy="1.3" r="1.2"></circle>
                            <circle cx="10.4" cy="13.2" r="1.2"></circle>
                            <circle cx="5.7" cy="13.2" r="1.2"></circle>
                            <circle cx="10.8" cy="24.5" r="1.2"></circle>
                            <circle cx="14.1" cy="21.1" r="1.2"></circle>
                            <circle cx="14" cy="16.5" r="1.2"></circle>
                            <circle cx="6.1" cy="25.1" r="1.2"></circle>
                            <circle cx="1.4" cy="10.9" r="1.2"></circle>
                            <circle cx="1.4" cy="15.6" r="1.2"></circle>
                            <circle cx="1.4" cy="20.4" r="1.2"></circle>
                            <circle cx="1.4" cy="25.1" r="1.2"></circle>
                        </g>
                        <g transform="translate(20.000000, 0.000000)">
                            <circle id="Oval" cx="14.2" cy="1.7" r="1.2"></circle>
                            <circle id="Oval" cx="9.4" cy="2.7" r="1.2"></circle>
                            <circle id="Oval" cx="5.4" cy="5.4" r="1.2"></circle>
                            <circle id="Oval" cx="2.7" cy="9.4" r="1.2"></circle>
                            <circle id="Oval" cx="2.7" cy="19" r="1.2"></circle>
                            <circle id="Oval" cx="5.4" cy="23.1" r="1.2"></circle>
                            <path d="M10.7,25.8 C10.7,26.5 10.1,27 9.5,27 C8.8,27 8.3,26.4 8.3,25.8 C8.3,25.1 8.9,24.6 9.5,24.6 C10.1,24.6 10.7,25.1 10.7,25.8 L10.7,25.8 Z" id="Shape"></path>
                            <circle id="Oval" cx="14.2" cy="26.8" r="1.2"></circle>
                            <circle id="Oval" cx="1.7" cy="14.2" r="1.2"></circle>
                            <circle id="Oval" cx="19" cy="2.7" r="1.2"></circle>
                            <circle id="Oval" cx="23.1" cy="5.4" r="1.2"></circle>
                            <circle id="Oval" cx="25.8" cy="9.4" r="1.2"></circle>
                            <circle id="Oval" cx="25.8" cy="19" r="1.2"></circle>
                            <circle id="Oval" cx="23.1" cy="23.1" r="1.2"></circle>
                            <path d="M17.8,25.8 C17.8,26.5 18.4,27 19,27 C19.7,27 20.2,26.4 20.2,25.8 C20.2,25.1 19.6,24.6 19,24.6 C18.3,24.6 17.8,25.1 17.8,25.8 L17.8,25.8 Z" id="Shape"></path>
                            <circle id="Oval" cx="26.7" cy="14.2" r="1.2"></circle>
                        </g>
                        <g transform="translate(73.000000, 0.000000)">
                            <circle id="Oval" cx="13.9" cy="1.7" r="1.2"></circle>
                            <circle id="Oval" cx="9.1" cy="2.7" r="1.2"></circle>
                            <circle id="Oval" cx="5.1" cy="5.4" r="1.2"></circle>
                            <circle id="Oval" cx="2.4" cy="9.4" r="1.2"></circle>
                            <circle id="Oval" cx="2.4" cy="19" r="1.2"></circle>
                            <circle id="Oval" cx="5.1" cy="23.1" r="1.2"></circle>
                            <path d="M10.4,25.8 C10.4,26.5 9.8,27 9.2,27 C8.5,27 8,26.4 8,25.8 C8,25.1 8.6,24.6 9.2,24.6 C9.8,24.6 10.4,25.1 10.4,25.8 L10.4,25.8 Z" id="Shape"></path>
                            <circle id="Oval" cx="13.9" cy="26.8" r="1.2"></circle>
                            <circle id="Oval" cx="1.4" cy="14.2" r="1.2"></circle>
                            <circle id="Oval" cx="18.7" cy="2.7" r="1.2"></circle>
                            <circle id="Oval" cx="22.8" cy="5.4" r="1.2"></circle>
                            <circle id="Oval" cx="25.5" cy="9.4" r="1.2"></circle>
                            <circle id="Oval" cx="25.5" cy="19" r="1.2"></circle>
                            <circle id="Oval" cx="22.8" cy="23.1" r="1.2"></circle>
                            <path d="M17.5,25.8 C17.5,26.5 18.1,27 18.7,27 C19.4,27 19.9,26.4 19.9,25.8 C19.9,25.1 19.3,24.6 18.7,24.6 C18,24.6 17.5,25.1 17.5,25.8 L17.5,25.8 Z" id="Shape"></path>
                            <circle id="Oval" cx="26.5" cy="14.2" r="1.2"></circle>
                        </g>
                        <g>
                            <circle id="Oval" cx="9.3" cy="26.8" r="1.2"></circle>
                            <circle id="Oval" cx="4.8" cy="25.6" r="1.2"></circle>
                            <circle id="Oval" cx="1.9" cy="22.1" r="1.2"></circle>
                            <circle id="Oval" cx="13.3" cy="24.5" r="1.2"></circle>
                            <circle id="Oval" cx="14.9" cy="20.1" r="1.2"></circle>
                            <circle id="Oval" cx="12.6" cy="16.1" r="1.2"></circle>
                            <circle id="Oval" cx="8.5" cy="14.1" r="1.2"></circle>
                            <circle id="Oval" cx="4.4" cy="12" r="1.2"></circle>
                            <path d="M8.9,1.7 C8.9,1 8.3,0.5 7.7,0.5 C7,0.5 6.4,1 6.4,1.7 C6.4,2.4 7,3 7.6,3 C8.3,3 8.9,2.4 8.9,1.7 L8.9,1.7 Z" id="Shape"></path>
                            <circle id="Oval" cx="12.1" cy="2.8" r="1.2"></circle>
                            <circle id="Oval" cx="14.5" cy="6.7" r="1.2"></circle>
                            <circle id="Oval" cx="3.7" cy="3.7" r="1.2"></circle>
                            <circle id="Oval" cx="2.2" cy="8" r="1.2"></circle>
                        </g>
                    </g>
                </g>
            </g>
        </g>
    </g>
</svg>