<?xml version="1.0" encoding="UTF-8" standalone="no"?>
<svg width="87px" height="24px" viewBox="0 0 87 24" version="1.1" xmlns="http://www.w3.org/2000/svg" xmlns:xlink="http://www.w3.org/1999/xlink">
    <!-- Generator: Sketch 39.1 (31720) - http://www.bohemiancoding.com/sketch -->
    <title>logo-sobo</title>
    <desc>Created with Sketch.</desc>
    <defs></defs>
    <g id="Page-1" stroke="none" stroke-width="1" fill="none" fill-rule="evenodd">
        <g id="assets" transform="translate(-110.000000, -375.000000)" fill="#0032FF">
            <g id="logo-sobo" transform="translate(110.000000, 375.000000)">
                <g id="Layer_1">
                    <g id="Group">
                        <g transform="translate(45.428571, 0.857143)" id="Oval">
                            <ellipse cx="1.2" cy="1.11428571" rx="1.02857143" ry="1.02857143"></ellipse>
                            <ellipse cx="1.2" cy="5.22857143" rx="1.02857143" ry="1.02857143"></ellipse>
                            <ellipse cx="9.25714286" cy="1.62857143" rx="1.02857143" ry="1.02857143"></ellipse>
                            <ellipse cx="12.0857143" cy="4.54285714" rx="1.02857143" ry="1.02857143"></ellipse>
                            <ellipse cx="12" cy="8.48571429" rx="1.02857143" ry="1.02857143"></ellipse>
                            <circle cx="5.22857143" cy="1.11428571" r="1.02857143"></circle>
                            <ellipse cx="8.91428571" cy="11.3142857" rx="1.02857143" ry="1.02857143"></ellipse>
                            <ellipse cx="4.88571429" cy="11.3142857" rx="1.02857143" ry="1.02857143"></ellipse>
                            <ellipse cx="9.25714286" cy="21" rx="1.02857143" ry="1.02857143"></ellipse>
                            <ellipse cx="12.0857143" cy="18.0857143" rx="1.02857143" ry="1.02857143"></ellipse>
                            <circle cx="12" cy="14.1428571" r="1.02857143"></circle>
                            <ellipse cx="5.22857143" cy="21.5142857" rx="1.02857143" ry="1.02857143"></ellipse>
                            <ellipse cx="1.2" cy="9.34285714" rx="1.02857143" ry="1.02857143"></ellipse>
                            <ellipse cx="1.2" cy="13.3714286" rx="1.02857143" ry="1.02857143"></ellipse>
                            <ellipse cx="1.2" cy="17.4857143" rx="1.02857143" ry="1.02857143"></ellipse>
                            <ellipse cx="1.2" cy="21.5142857" rx="1.02857143" ry="1.02857143"></ellipse>
                        </g>
                        <g transform="translate(17.142857, 0.000000)">
                            <ellipse id="Oval" cx="12.1714286" cy="1.45714286" rx="1.02857143" ry="1.02857143"></ellipse>
                            <ellipse id="Oval" cx="8.05714286" cy="2.31428571" rx="1.02857143" ry="1.02857143"></ellipse>
                            <ellipse id="Oval" cx="4.62857143" cy="4.62857143" rx="1.02857143" ry="1.02857143"></ellipse>
                            <ellipse id="Oval" cx="2.31428571" cy="8.05714286" rx="1.02857143" ry="1.02857143"></ellipse>
                            <circle id="Oval" cx="2.31428571" cy="16.2857143" r="1.02857143"></circle>
                            <ellipse id="Oval" cx="4.62857143" cy="19.8" rx="1.02857143" ry="1.02857143"></ellipse>
                            <path d="M9.17142857,22.1142857 C9.17142857,22.7142857 8.65714286,23.1428571 8.14285714,23.1428571 C7.54285714,23.1428571 7.11428571,22.6285714 7.11428571,22.1142857 C7.11428571,21.5142857 7.62857143,21.0857143 8.14285714,21.0857143 C8.65714286,21.0857143 9.17142857,21.5142857 9.17142857,22.1142857 L9.17142857,22.1142857 Z" id="Shape"></path>
                            <ellipse id="Oval" cx="12.1714286" cy="22.9714286" rx="1.02857143" ry="1.02857143"></ellipse>
                            <ellipse id="Oval" cx="1.45714286" cy="12.1714286" rx="1.02857143" ry="1.02857143"></ellipse>
                            <ellipse id="Oval" cx="16.2857143" cy="2.31428571" rx="1.02857143" ry="1.02857143"></ellipse>
                            <ellipse id="Oval" cx="19.8" cy="4.62857143" rx="1.02857143" ry="1.02857143"></ellipse>
                            <ellipse id="Oval" cx="22.1142857" cy="8.05714286" rx="1.02857143" ry="1.02857143"></ellipse>
                            <circle id="Oval" cx="22.1142857" cy="16.2857143" r="1.02857143"></circle>
                            <ellipse id="Oval" cx="19.8" cy="19.8" rx="1.02857143" ry="1.02857143"></ellipse>
                            <path d="M15.2571429,22.1142857 C15.2571429,22.7142857 15.7714286,23.1428571 16.2857143,23.1428571 C16.8857143,23.1428571 17.3142857,22.6285714 17.3142857,22.1142857 C17.3142857,21.5142857 16.8,21.0857143 16.2857143,21.0857143 C15.6857143,21.0857143 15.2571429,21.5142857 15.2571429,22.1142857 L15.2571429,22.1142857 Z" id="Shape"></path>
                            <ellipse id="Oval" cx="22.8857143" cy="12.1714286" rx="1.02857143" ry="1.02857143"></ellipse>
                        </g>
                        <g transform="translate(62.571429, 0.000000)">
                            <ellipse id="Oval" cx="11.9142857" cy="1.45714286" rx="1.02857143" ry="1.02857143"></ellipse>
                            <circle id="Oval" cx="7.8" cy="2.31428571" r="1.02857143"></circle>
                            <ellipse id="Oval" cx="4.37142857" cy="4.62857143" rx="1.02857143" ry="1.02857143"></ellipse>
                            <ellipse id="Oval" cx="2.05714286" cy="8.05714286" rx="1.02857143" ry="1.02857143"></ellipse>
                            <ellipse id="Oval" cx="2.05714286" cy="16.2857143" rx="1.02857143" ry="1.02857143"></ellipse>
                            <ellipse id="Oval" cx="4.37142857" cy="19.8" rx="1.02857143" ry="1.02857143"></ellipse>
                            <path d="M8.91428571,22.1142857 C8.91428571,22.7142857 8.4,23.1428571 7.88571429,23.1428571 C7.28571429,23.1428571 6.85714286,22.6285714 6.85714286,22.1142857 C6.85714286,21.5142857 7.37142857,21.0857143 7.88571429,21.0857143 C8.4,21.0857143 8.91428571,21.5142857 8.91428571,22.1142857 L8.91428571,22.1142857 Z" id="Shape"></path>
                            <ellipse id="Oval" cx="11.9142857" cy="22.9714286" rx="1.02857143" ry="1.02857143"></ellipse>
                            <ellipse id="Oval" cx="1.2" cy="12.1714286" rx="1.02857143" ry="1.02857143"></ellipse>
                            <circle id="Oval" cx="16.0285714" cy="2.31428571" r="1.02857143"></circle>
                            <circle id="Oval" cx="19.5428571" cy="4.62857143" r="1.02857143"></circle>
                            <ellipse id="Oval" cx="21.8571429" cy="8.05714286" rx="1.02857143" ry="1.02857143"></ellipse>
                            <circle id="Oval" cx="21.8571429" cy="16.2857143" r="1.02857143"></circle>
                            <circle id="Oval" cx="19.5428571" cy="19.8" r="1.02857143"></circle>
                            <path d="M15,22.1142857 C15,22.7142857 15.5142857,23.1428571 16.0285714,23.1428571 C16.6285714,23.1428571 17.0571429,22.6285714 17.0571429,22.1142857 C17.0571429,21.5142857 16.5428571,21.0857143 16.0285714,21.0857143 C15.4285714,21.0857143 15,21.5142857 15,22.1142857 L15,22.1142857 Z" id="Shape"></path>
                            <ellipse id="Oval" cx="22.7142857" cy="12.1714286" rx="1.02857143" ry="1.02857143"></ellipse>
                        </g>
                        <g>
                            <ellipse id="Oval" cx="7.97142857" cy="22.9714286" rx="1.02857143" ry="1.02857143"></ellipse>
                            <ellipse id="Oval" cx="4.11428571" cy="21.9428571" rx="1.02857143" ry="1.02857143"></ellipse>
                            <circle id="Oval" cx="1.62857143" cy="18.9428571" r="1.02857143"></circle>
                            <circle id="Oval" cx="11.4" cy="21" r="1.02857143"></circle>
                            <circle id="Oval" cx="12.7714286" cy="17.2285714" r="1.02857143"></circle>
                            <ellipse id="Oval" cx="10.8" cy="13.8" rx="1.02857143" ry="1.02857143"></ellipse>
                            <ellipse id="Oval" cx="7.28571429" cy="12.0857143" rx="1.02857143" ry="1.02857143"></ellipse>
                            <ellipse id="Oval" cx="3.77142857" cy="10.2857143" rx="1.02857143" ry="1.02857143"></ellipse>
                            <path d="M7.62857143,1.45714286 C7.62857143,0.857142857 7.11428571,0.428571429 6.6,0.428571429 C6,0.428571429 5.48571429,0.857142857 5.48571429,1.45714286 C5.48571429,2.05714286 6,2.57142857 6.51428571,2.57142857 C7.11428571,2.57142857 7.62857143,2.05714286 7.62857143,1.45714286 L7.62857143,1.45714286 Z" id="Shape"></path>
                            <ellipse id="Oval" cx="10.3714286" cy="2.4" rx="1.02857143" ry="1.02857143"></ellipse>
                            <circle id="Oval" cx="12.4285714" cy="5.74285714" r="1.02857143"></circle>
                            <ellipse id="Oval" cx="3.17142857" cy="3.17142857" rx="1.02857143" ry="1.02857143"></ellipse>
                            <circle id="Oval" cx="1.88571429" cy="6.85714286" r="1.02857143"></circle>
                        </g>
                    </g>
                </g>
            </g>
        </g>
    </g>
</svg>