<?xml version="1.0" encoding="UTF-8" standalone="no"?>
<svg width="84px" height="40px" viewBox="0 0 84 40" version="1.1" xmlns="http://www.w3.org/2000/svg" xmlns:xlink="http://www.w3.org/1999/xlink">
    <!-- Generator: Sketch 39.1 (31720) - http://www.bohemiancoding.com/sketch -->
    <title>logo-asyl</title>
    <desc>Created with Sketch.</desc>
    <defs></defs>
    <g id="Page-1" stroke="none" stroke-width="1" fill="none" fill-rule="evenodd">
        <g id="assets" transform="translate(-119.000000, -140.000000)" fill="#0032FF">
            <g id="logo-asyl" transform="translate(119.000000, 140.000000)">
                <g id="Group">
                    <path d="M18.2341463,0 L12.2926829,0 L0.819512195,31.2820513 L6.65853659,31.2820513 L8.91219512,24.9230769 L21.4097561,24.9230769 L23.6634146,31.2820513 L29.502439,31.2820513 L27.3512195,25.1282051 L18.2341463,0 L18.2341463,0 Z M10.7560976,19.6923077 L15.2634146,7.07692308 L19.6682927,19.6923077 L10.7560976,19.6923077 L10.7560976,19.6923077 Z" id="Shape"></path>
                    <polygon id="Shape" points="83.795122 31.2820513 78.0585366 31.2820513 78.0585366 0 83.795122 0"></polygon>
                    <path d="M50.195122,15.4871795 C50.195122,12.8205128 48.9658537,10.3589744 46.9170732,8.92307692 C45.3804878,7.79487179 43.4341463,7.28205128 40.8731707,7.28205128 C35.3414634,7.28205128 31.7560976,10.1538462 31.7560976,14.6666667 C31.7560976,16.5128205 32.2682927,17.4358974 32.7804878,18.2564103 C34.4195122,20.5128205 37.902439,21.3333333 40.7707317,21.7435897 C44.2536585,22.2564103 45.6878049,22.8717949 45.6878049,24.7179487 C45.6878049,25.9487179 44.4585366,27.5897436 41.4878049,27.5897436 C38.1073171,27.5897436 36.2634146,26.1538462 36.0585366,23.1794872 L31.0390244,23.1794872 C31.0390244,26.4615385 32.6780488,29.1282051 35.5463415,30.6666667 C36.9804878,31.4871795 38.9268293,31.7948718 41.2829268,31.7948718 C43.9463415,31.7948718 46.097561,31.1794872 47.7365854,30.0512821 C49.0682927,29.1282051 50.7073171,27.1794872 50.7073171,23.8974359 C50.7073171,22.0512821 49.7853659,20.4102564 48.1463415,19.2820513 C46.404878,18.1538462 43.9463415,17.6410256 41.3853659,17.2307692 C38.004878,16.7179487 36.6731707,15.6923077 36.6731707,14.0512821 C36.6731707,12.4102564 38.2097561,11.2820513 40.5658537,11.2820513 C43.7414634,11.2820513 45.0731707,12.8205128 45.0731707,15.2820513 L50.195122,15.2820513 L50.195122,15.4871795 Z" id="Shape"></path>
                    <path d="M57.9804878,33.8461538 C55.7268293,33.8461538 54.395122,33.6410256 54.395122,33.6410256 L54.395122,38.8717949 C54.395122,38.8717949 56.6487805,39.1794872 58.2878049,39.1794872 C63.7170732,39.1794872 65.0487805,35.5897436 66.4829268,31.4871795 L74.8829268,7.8974359 L69.0439024,7.8974359 L63.6146341,23.5897436 L58.0829268,7.8974359 L52.2439024,7.8974359 L60.1317073,29.7435897 C60.7463415,32.1025641 60.1317073,33.8461538 57.9804878,33.8461538 L57.9804878,33.8461538 Z" id="Shape"></path>
                </g>
            </g>
        </g>
    </g>
</svg>