<?xml version="1.0" encoding="utf-8"?>
<!-- Generator: Adobe Illustrator 18.1.1, SVG Export Plug-In . SVG Version: 6.00 Build 0)  -->
<!DOCTYPE svg PUBLIC "-//W3C//DTD SVG 1.1//EN" "http://www.w3.org/Graphics/SVG/1.1/DTD/svg11.dtd">
<svg version="1.1" id="Layer_1" xmlns="http://www.w3.org/2000/svg" xmlns:xlink="http://www.w3.org/1999/xlink" x="0px" y="0px"
	 viewBox="0 0 85 40" enable-background="new 0 0 85 40" xml:space="preserve">
<g>
	<path fill="#0032ff" d="M18.8,1H13L1.8,31.5h5.7l2.2-6.2h12.2l2.2,6.2h5.7l-2.1-6L18.8,1z M11.5,20.2l4.4-12.3l4.3,12.3H11.5z"/>
	<polygon fill="#0032ff" points="82.8,31.5 77.2,31.5 77.2,1 82.8,1 82.8,31.5 	"/>
	<path fill="#0032ff" d="M50,16.1c0-2.6-1.2-5-3.2-6.4c-1.5-1.1-3.4-1.6-5.9-1.6c-5.4,0-8.9,2.8-8.9,7.2c0,1.8,0.5,2.7,1,3.5
		c1.6,2.2,5,3,7.8,3.4c3.4,0.5,4.8,1.1,4.8,2.9c0,1.2-1.2,2.8-4.1,2.8c-3.3,0-5.1-1.4-5.3-4.3h-4.9c0,3.2,1.6,5.8,4.4,7.3
		c1.4,0.8,3.3,1.1,5.6,1.1c2.6,0,4.7-0.6,6.3-1.7c1.3-0.9,2.9-2.8,2.9-6c0-1.8-0.9-3.4-2.5-4.5c-1.7-1.1-4.1-1.6-6.6-2
		c-3.3-0.5-4.6-1.5-4.6-3.1c0-1.6,1.5-2.7,3.8-2.7c3.1,0,4.4,1.5,4.4,3.9H50z"/>
	<path fill="#0032ff" d="M57.6,34c-2.2,0-3.5-0.2-3.5-0.2v5.1c0,0,2.2,0.3,3.8,0.3c5.3,0,6.6-3.5,8-7.5l8.2-23h-5.7L63.1,24
		L57.7,8.7H52L59.7,30C60.3,32.3,59.7,34,57.6,34z"/>
</g>
</svg>
