<?xml version="1.0" encoding="utf-8"?>
<!-- Generator: Adobe Illustrator 18.1.1, SVG Export Plug-In . SVG Version: 6.00 Build 0)  -->
<!DOCTYPE svg PUBLIC "-//W3C//DTD SVG 1.1//EN" "http://www.w3.org/Graphics/SVG/1.1/DTD/svg11.dtd">
<svg version="1.1" id="Layer_1" xmlns="http://www.w3.org/2000/svg" xmlns:xlink="http://www.w3.org/1999/xlink" x="0px" y="0px"
	 viewBox="0 0 102 30" enable-background="new 0 0 102 30" xml:space="preserve">
<g>
	<g>
		<circle fill="#0032ff" cx="54.4" cy="3.3" r="1.2"/>
		<circle fill="#0032ff" cx="54.4" cy="8.1" r="1.2"/>
		<circle fill="#0032ff" cx="63.8" cy="3.9" r="1.2"/>
		<circle fill="#0032ff" cx="67.1" cy="7.3" r="1.2"/>
		<circle fill="#0032ff" cx="67" cy="11.9" r="1.2"/>
		<circle fill="#0032ff" cx="59.1" cy="3.3" r="1.2"/>
		<circle fill="#0032ff" cx="63.4" cy="15.2" r="1.2"/>
		<circle fill="#0032ff" cx="58.7" cy="15.2" r="1.2"/>
		<circle fill="#0032ff" cx="63.8" cy="26.5" r="1.2"/>
		<circle fill="#0032ff" cx="67.1" cy="23.1" r="1.2"/>
		<circle fill="#0032ff" cx="67" cy="18.5" r="1.2"/>
		<circle fill="#0032ff" cx="59.1" cy="27.1" r="1.2"/>
		<circle fill="#0032ff" cx="54.4" cy="12.9" r="1.2"/>
		<circle fill="#0032ff" cx="54.4" cy="17.6" r="1.2"/>
		<circle fill="#0032ff" cx="54.4" cy="22.4" r="1.2"/>
		<circle fill="#0032ff" cx="54.4" cy="27.1" r="1.2"/>
	</g>
	<g>
		<circle fill="#0032ff" cx="34.2" cy="2.7" r="1.2"/>
		<circle fill="#0032ff" cx="29.4" cy="3.7" r="1.2"/>
		<circle fill="#0032ff" cx="25.4" cy="6.4" r="1.2"/>
		<circle fill="#0032ff" cx="22.7" cy="10.4" r="1.2"/>
		<circle fill="#0032ff" cx="22.7" cy="20" r="1.2"/>
		<circle fill="#0032ff" cx="25.4" cy="24.1" r="1.2"/>
		<path fill="#0032ff" d="M30.7,26.8c0,0.7-0.6,1.2-1.2,1.2c-0.7,0-1.2-0.6-1.2-1.2c0-0.7,0.6-1.2,1.2-1.2
			C30.1,25.6,30.7,26.1,30.7,26.8z"/>
		<circle fill="#0032ff" cx="34.2" cy="27.8" r="1.2"/>
		<circle fill="#0032ff" cx="21.7" cy="15.2" r="1.2"/>
		<circle fill="#0032ff" cx="39" cy="3.7" r="1.2"/>
		<circle fill="#0032ff" cx="43.1" cy="6.4" r="1.2"/>
		<circle fill="#0032ff" cx="45.8" cy="10.4" r="1.2"/>
		<circle fill="#0032ff" cx="45.8" cy="20" r="1.2"/>
		<circle fill="#0032ff" cx="43.1" cy="24.1" r="1.2"/>
		<path fill="#0032ff" d="M37.8,26.8c0,0.7,0.6,1.2,1.2,1.2c0.7,0,1.2-0.6,1.2-1.2c0-0.7-0.6-1.2-1.2-1.2
			C38.3,25.6,37.8,26.1,37.8,26.8z"/>
		<circle fill="#0032ff" cx="46.7" cy="15.2" r="1.2"/>
	</g>
	<g>
		<circle fill="#0032ff" cx="86.9" cy="2.7" r="1.2"/>
		<circle fill="#0032ff" cx="82.1" cy="3.7" r="1.2"/>
		<circle fill="#0032ff" cx="78.1" cy="6.4" r="1.2"/>
		<circle fill="#0032ff" cx="75.4" cy="10.4" r="1.2"/>
		<circle fill="#0032ff" cx="75.4" cy="20" r="1.2"/>
		<circle fill="#0032ff" cx="78.1" cy="24.1" r="1.2"/>
		<path fill="#0032ff" d="M83.4,26.8c0,0.7-0.6,1.2-1.2,1.2c-0.7,0-1.2-0.6-1.2-1.2c0-0.7,0.6-1.2,1.2-1.2
			C82.8,25.6,83.4,26.1,83.4,26.8z"/>
		<circle fill="#0032ff" cx="86.9" cy="27.8" r="1.2"/>
		<circle fill="#0032ff" cx="74.4" cy="15.2" r="1.2"/>
		<circle fill="#0032ff" cx="91.7" cy="3.7" r="1.2"/>
		<circle fill="#0032ff" cx="95.8" cy="6.4" r="1.2"/>
		<circle fill="#0032ff" cx="98.5" cy="10.4" r="1.2"/>
		<circle fill="#0032ff" cx="98.5" cy="20" r="1.2"/>
		<circle fill="#0032ff" cx="95.8" cy="24.1" r="1.2"/>
		<path fill="#0032ff" d="M90.5,26.8c0,0.7,0.6,1.2,1.2,1.2c0.7,0,1.2-0.6,1.2-1.2c0-0.7-0.6-1.2-1.2-1.2
			C91,25.6,90.5,26.1,90.5,26.8z"/>
		<circle fill="#0032ff" cx="99.5" cy="15.2" r="1.2"/>
	</g>
	<g>
		<circle fill="#0032ff" cx="9.3" cy="27.8" r="1.2"/>
		<circle fill="#0032ff" cx="4.8" cy="26.6" r="1.2"/>
		<circle fill="#0032ff" cx="1.9" cy="23.1" r="1.2"/>
		<circle fill="#0032ff" cx="13.3" cy="25.5" r="1.2"/>
		<circle fill="#0032ff" cx="14.9" cy="21.1" r="1.2"/>
		<circle fill="#0032ff" cx="12.6" cy="17.1" r="1.2"/>
		<circle fill="#0032ff" cx="8.5" cy="15.1" r="1.2"/>
		<circle fill="#0032ff" cx="4.4" cy="13" r="1.2"/>
		<path fill="#0032ff" d="M8.9,2.7c0-0.7-0.6-1.2-1.2-1.2C7,1.5,6.4,2,6.4,2.7C6.4,3.4,7,4,7.6,4C8.3,4,8.9,3.4,8.9,2.7z"/>
		<circle fill="#0032ff" cx="12.1" cy="3.8" r="1.2"/>
		<circle fill="#0032ff" cx="14.5" cy="7.7" r="1.2"/>
		<circle fill="#0032ff" cx="3.7" cy="4.7" r="1.2"/>
		<circle fill="#0032ff" cx="2.2" cy="9" r="1.2"/>
	</g>
</g>
</svg>
