<?xml version="1.0" encoding="UTF-8" standalone="no"?>
<svg width="82px" height="40px" viewBox="0 0 82 40" version="1.1" xmlns="http://www.w3.org/2000/svg" xmlns:xlink="http://www.w3.org/1999/xlink">
    <!-- Generator: Sketch 41 (35326) - http://www.bohemiancoding.com/sketch -->
    <title>logo-asyl</title>
    <desc>Created with Sketch.</desc>
    <defs>
        <polygon id="path-1" points="0 39.6598033 81.8544262 39.6598033 81.8544262 0.000131147541 0 0.000131147541"></polygon>
    </defs>
    <g id="Page-1" stroke="none" stroke-width="1" fill="none" fill-rule="evenodd">
        <g id="assets" transform="translate(-119.000000, -187.000000)">
            <g id="logo-asyl" transform="translate(119.000000, 187.000000)">
                <g id="Page-1">
                    <path d="M47.0391475,18.8959344 C45.3250492,17.784459 42.948,17.3910164 40.415541,17.0257705 C37.0575082,16.5392131 35.7742295,15.6592131 35.7742295,14.0139672 C35.7742295,12.4480656 37.2548852,11.4165902 39.5893115,11.4165902 C42.4725902,11.4165902 44.0161967,12.8297049 44.0161967,15.2238033 L48.8824262,15.2238033 C48.8824262,12.5798689 47.6935738,10.1687213 45.6870164,8.77331148 C44.1624262,7.70970492 42.215541,7.19363934 39.7440656,7.19363934 C34.2922623,7.19363934 30.7702951,10.0310164 30.7702951,14.4231475 C30.7702951,16.2323279 31.3670164,17.2729836 31.892918,18.1123279 C33.520459,20.3779016 36.7991475,21.0074098 39.6752131,21.4552787 C43.1112787,21.9890492 44.4620984,22.3818361 44.4620984,24.4179016 C44.4620984,25.5982295 43.028,27.1365902 40.3899672,27.1365902 C37.9007869,27.1365902 35.5263607,25.8736393 35.3886557,22.9326557 L30.1584918,22.9326557 C30.1584918,26.1497049 31.7689836,28.8362623 34.585377,30.3090492 C36.0411148,31.0710164 37.9617705,31.4585574 40.2784918,31.4585574 C42.8876721,31.4585574 45.015541,30.8900328 46.6083279,29.7706885 C47.960459,28.8185574 49.5794754,26.9929836 49.5794754,23.7208525 C49.5794754,21.8854426 48.6922623,20.0710164 47.0391475,18.8959344 Z" id="Fill-1" fill="#002FFF"></path>
                    <path d="M9.74891803,19.335082 L14.228918,6.15081967 L18.5895738,19.335082 L9.74891803,19.335082 Z M11.2695738,0.0196721311 L6.55737705e-05,30.8308197 L5.84268852,30.8308197 L8.11285246,24.1495082 L20.1823607,24.1495082 L22.3928525,30.8308197 L28.2669508,30.8308197 L17.1908852,0.0196721311 L11.2695738,0.0196721311 Z" id="Fill-3" fill="#002FFF"></path>
                    <mask id="mask-2" fill="white">
                        <use xlink:href="#path-1"></use>
                    </mask>
                    <g id="Clip-6"></g>
                    <polygon id="Fill-5" fill="#002FFF" mask="url(#mask-2)" points="76.4970492 30.8112787 81.8544262 30.8112787 81.8544262 0.000131147541 76.4970492 0.000131147541"></polygon>
                    <path d="M61.8687213,25.9038689 L56.5664262,7.80485246 L50.8542951,7.80485246 L57.3631475,27.040918 C59.0123279,31.9150164 59.8024918,35.0055082 55.4798689,35.0055082 C53.2051148,35.0055082 52.0615082,34.6658361 52.0615082,34.6658361 L52.0615082,39.1694426 C52.0615082,39.1694426 54.2660984,39.6599344 55.9028197,39.6599344 C61.0418361,39.6599344 62.9329836,37.6140328 65.2562623,30.8114098 L73.2674098,7.80485246 L67.5552787,7.80485246 L61.8687213,25.9038689 Z" id="Fill-7" fill="#002FFF" mask="url(#mask-2)"></path>
                </g>
            </g>
        </g>
    </g>
</svg>